<?xml version="1.0" standalone="no"?>
<!DOCTYPE svg PUBLIC "-//W3C//DTD SVG 20010904//EN"
 "http://www.w3.org/TR/2001/REC-SVG-20010904/DTD/svg10.dtd">
<svg version="1.0" xmlns="http://www.w3.org/2000/svg"
 width="385.000000pt" height="64.000000pt" viewBox="0 0 385.000000 64.000000"
 preserveAspectRatio="xMidYMid meet">

<g transform="translate(0.000000,64.000000) scale(0.100000,-0.100000)"
fill="#000000" stroke="none">
<path d="M0 320 l0 -320 1925 0 1925 0 0 64 c0 59 -2 65 -22 68 -22 3 -23 8
-26 113 l-4 110 -32 -110 c-29 -102 -34 -110 -56 -110 -23 0 -27 8 -55 110
l-30 110 -3 -112 -3 -113 -29 0 -30 0 0 185 0 185 40 0 c44 0 34 20 82 -165
11 -44 24 -83 28 -88 3 -4 21 51 40 123 l33 130 33 0 34 0 0 70 0 70 -1925 0
-1925 0 0 -320z m867 202 c2 -10 20 -24 40 -31 24 -9 39 -23 49 -47 21 -49 18
-54 -30 -54 -35 0 -46 4 -51 19 -8 26 -35 35 -53 17 -24 -23 -5 -53 45 -72 25
-10 59 -29 75 -42 24 -20 28 -31 28 -74 0 -41 -5 -54 -29 -79 -16 -16 -38 -29
-49 -29 -11 0 -22 -9 -25 -20 -3 -12 -14 -20 -26 -20 -14 0 -21 6 -21 20 0 15
-7 20 -25 20 -38 0 -75 42 -75 85 0 35 0 35 44 35 41 0 45 -2 48 -27 2 -22 8
-28 27 -28 30 0 50 29 36 51 -6 9 -33 25 -60 36 -64 24 -95 58 -95 104 0 51
24 91 64 105 19 7 37 21 39 31 3 10 13 18 22 18 9 0 19 -8 22 -18z m-500 -32
c23 -13 35 -31 43 -61 16 -59 9 -69 -49 -69 -49 0 -50 1 -53 32 -2 22 -9 34
-21 36 -16 3 -17 -6 -15 -110 2 -92 6 -113 18 -113 10 0 17 13 20 40 l5 40 51
3 51 3 28 104 28 105 62 0 63 0 27 -117 c14 -65 33 -141 41 -170 22 -80 21
-83 -35 -83 -50 0 -61 9 -61 50 0 14 -7 17 -32 15 -27 -2 -34 -8 -40 -34 -8
-30 -10 -31 -63 -31 -30 0 -55 4 -55 9 0 5 -19 2 -42 -6 -81 -28 -157 7 -172
78 -10 49 -7 180 5 222 19 71 124 102 196 57z m1308 8 c44 -20 68 -72 73 -157
8 -135 -34 -212 -116 -215 -92 -2 -127 51 -127 194 0 78 4 101 21 130 32 56
91 75 149 48z m535 -13 c22 -20 44 -89 36 -112 -4 -10 -19 -13 -53 -11 -46 3
-48 4 -51 36 -3 24 -8 32 -23 32 -19 0 -19 -6 -17 -112 2 -93 6 -113 18 -113
10 0 17 13 20 40 l5 40 49 3 c27 2 52 -1 56 -7 3 -6 19 41 34 104 l28 115 62
0 62 0 36 -147 36 -148 1 148 1 147 101 0 c110 0 135 -8 151 -48 9 -25 11 -26
18 -7 15 38 48 58 104 63 83 7 136 -29 136 -92 0 -25 -3 -26 -51 -26 -42 0
-52 3 -56 20 -6 23 -28 27 -36 6 -7 -18 10 -33 73 -62 56 -26 84 -68 78 -120
-3 -29 -1 -34 17 -34 20 0 21 4 17 88 -5 107 9 162 49 196 65 55 162 17 176
-66 5 -35 4 -38 -19 -38 -20 0 -28 8 -41 40 -13 35 -20 40 -46 40 -48 0 -65
-36 -66 -134 0 -89 16 -142 47 -151 29 -10 66 20 74 60 5 29 11 35 31 35 24 0
25 -2 20 -40 -7 -58 -30 -87 -77 -100 -45 -12 -100 5 -119 37 -9 16 -10 15
-11 -9 0 -25 -4 -28 -35 -28 -29 0 -35 4 -35 21 l0 20 -25 -20 c-52 -40 -149
-38 -192 5 l-23 23 6 -24 c6 -24 5 -25 -50 -25 l-56 0 0 39 c0 67 -11 101 -31
101 -17 0 -19 -8 -19 -70 l0 -71 -102 3 -103 3 -5 29 c-4 25 -10 29 -38 30
-29 1 -33 -2 -38 -32 -6 -33 -7 -33 -58 -30 -44 3 -51 6 -48 22 3 18 2 18 -23
-2 -35 -28 -92 -36 -140 -20 -59 19 -75 58 -75 179 0 114 12 154 54 180 40 26
135 22 166 -6z m1271 8 c42 -25 62 -83 62 -179 0 -102 -21 -151 -76 -177 -33
-17 -42 -17 -79 -5 -70 22 -83 51 -83 183 0 100 3 117 21 142 40 53 101 68
155 36z m-2351 -53 c0 -53 2 -60 20 -60 16 0 19 8 22 58 l3 57 53 3 52 3 0
-186 0 -186 -52 3 -53 3 -3 73 c-3 64 -5 72 -22 72 -18 0 -20 -7 -20 -75 l0
-75 -50 0 -50 0 0 185 0 185 50 0 50 0 0 -60z m370 40 c0 -18 -7 -20 -63 -20
-35 0 -66 -2 -68 -4 -2 -2 -2 -27 -1 -55 l4 -51 59 0 c56 0 59 -1 59 -25 0
-24 -3 -25 -60 -25 l-60 0 0 -69 c0 -85 -6 -101 -36 -101 l-24 0 0 185 0 185
95 0 c88 0 95 -1 95 -20z m455 -5 c29 -28 34 -97 10 -132 -13 -18 -13 -26 -1
-55 7 -18 16 -61 19 -95 l5 -63 -28 0 c-24 0 -28 5 -34 38 -3 20 -6 51 -6 69
0 37 -21 53 -69 53 l-31 0 0 -80 c0 -79 0 -80 -25 -80 l-25 0 0 185 0 185 80
0 c73 0 83 -3 105 -25z"/>
<path d="M530 344 c0 -10 -3 -29 -6 -41 -5 -17 -2 -23 10 -23 14 0 16 6 10 38
-8 42 -14 54 -14 26z"/>
<path d="M1594 452 c-24 -16 -36 -58 -36 -130 0 -90 12 -128 46 -143 35 -16
63 3 77 54 15 55 6 169 -15 202 -16 24 -49 33 -72 17z"/>
<path d="M2620 390 c0 -23 5 -30 19 -30 20 0 37 32 26 50 -3 5 -15 10 -26 10
-14 0 -19 -7 -19 -30z"/>
<path d="M2753 341 c-10 -16 -9 -26 3 -50 14 -28 20 -31 64 -31 46 0 49 -2 52
-27 3 -31 32 -43 41 -18 10 25 -3 43 -39 55 -41 14 -94 56 -94 76 0 20 -13 17
-27 -5z"/>
<path d="M2366 334 c-10 -27 -7 -54 7 -54 9 0 12 11 9 35 -5 39 -7 42 -16 19z"/>
<path d="M3374 435 c-21 -33 -30 -150 -15 -197 16 -49 44 -72 76 -64 36 9 55
59 55 143 0 90 -22 137 -67 141 -25 3 -35 -2 -49 -23z"/>
<path d="M1820 400 l0 -63 42 6 c92 12 92 99 1 113 l-43 7 0 -63z"/>
</g>
</svg>
